<svg width="48" height="48" viewBox="0 0 48 48" fill="none" xmlns="http://www.w3.org/2000/svg">
<g filter="url(#filter0_d_9_6014)">
<path d="M20.5524 18.5762L4.00002 38.6032C12.5828 39.1007 30.9498 39.5734 35.7561 37.4837C41.7641 34.8714 43.3088 29.011 42.9902 25.2933C42.4997 19.5713 38.2083 15.1596 33.4265 13.9737C27.1734 12.423 22.4733 16.2128 20.5524 18.5762Z" fill="#2268AE"/>
</g>
<path d="M26.4771 20.4533L43.0295 0.426336C34.4468 -0.071229 16.0797 -0.543915 11.2734 1.54586C5.26548 4.15807 3.72072 10.0185 4.03937 13.7362C4.52982 19.4582 8.8212 23.8699 13.603 25.0558C19.8562 26.6066 24.5562 22.8167 26.4771 20.4533Z" fill="#12B2C6" fill-opacity="0.7"/>
<defs>
<filter id="filter0_d_9_6014" x="0" y="13.6118" width="47.0295" height="33.4178" filterUnits="userSpaceOnUse" color-interpolation-filters="sRGB">
<feFlood flood-opacity="0" result="BackgroundImageFix"/>
<feColorMatrix in="SourceAlpha" type="matrix" values="0 0 0 0 0 0 0 0 0 0 0 0 0 0 0 0 0 0 127 0" result="hardAlpha"/>
<feOffset dy="4"/>
<feGaussianBlur stdDeviation="2"/>
<feComposite in2="hardAlpha" operator="out"/>
<feColorMatrix type="matrix" values="0 0 0 0 0 0 0 0 0 0 0 0 0 0 0 0 0 0 0.25 0"/>
<feBlend mode="normal" in2="BackgroundImageFix" result="effect1_dropShadow_9_6014"/>
<feBlend mode="normal" in="SourceGraphic" in2="effect1_dropShadow_9_6014" result="shape"/>
</filter>
</defs>
</svg>
